<svg xmlns="http://www.w3.org/2000/svg" viewBox="0 0 1020 994.82"><defs><style>.cls-1,.cls-2{fill:#181616;}.cls-1{fill-rule:evenodd;}</style></defs><g id="Layer_2" data-name="Layer 2"><g id="Layer_1-2" data-name="Layer 1"><path class="cls-1" d="M510,0C228.37,0,0,228.32,0,510,0,735.33,146.13,926.5,348.77,993.94c25.48,4.72,34.85-11.07,34.85-24.54,0-12.15-.47-52.34-.7-94.95C241,905.3,211.1,814.28,211.1,814.28c-23.2-58.95-56.62-74.63-56.62-74.63-46.28-31.65,3.48-31,3.48-31,51.21,3.6,78.18,52.56,78.18,52.56,45.49,78,119.31,55.42,148.42,42.39,4.57-33,17.79-55.46,32.38-68.2-113.28-12.89-232.37-56.62-232.37-252,0-55.68,19.93-101.17,52.55-136.89-5.29-12.85-22.75-64.72,4.94-135,0,0,42.83-13.7,140.29,52.28,40.68-11.3,84.31-17,127.65-17.16,43.34.2,87,5.86,127.76,17.16,97.35-66,140.11-52.28,140.11-52.28,27.76,70.25,10.3,122.12,5,135,32.7,35.72,52.48,81.21,52.48,136.89,0,195.89-119.3,239-232.87,251.64,18.29,15.83,34.59,46.86,34.59,94.44,0,68.24-.59,123.16-.59,140,0,13.58,9.18,29.48,35,24.47C874.05,926.36,1020,735.26,1020,510,1020,228.32,791.66,0,510,0Z"/><path class="cls-2" d="M193.16,732.25c-1.12,2.54-5.11,3.29-8.74,1.55s-5.77-5.12-4.57-7.66,5.08-3.33,8.78-1.59,5.81,5.16,4.53,7.7Z"/><path class="cls-2" d="M213.82,755.29c-2.43,2.25-7.19,1.2-10.41-2.36s-4-8.31-1.5-10.6,7.12-1.19,10.46,2.36,4,8.31,1.45,10.6Z"/><path class="cls-2" d="M233.93,784.66c-3.12,2.18-8.24.14-11.4-4.4s-3.12-10,.08-12.15,8.2-.22,11.4,4.28,3.11,10.05-.08,12.27Z"/><path class="cls-2" d="M261.48,813c-2.8,3.08-8.75,2.25-13.11-2s-5.7-9.94-2.9-13,8.83-2.22,13.21,2,5.78,10,2.8,13Z"/><path class="cls-2" d="M299.48,829.52c-1.23,4-7,5.8-12.74,4.1s-9.54-6.42-8.38-10.45,7-5.92,12.78-4.1,9.54,6.38,8.34,10.45Z"/><path class="cls-2" d="M341.22,832.57c.14,4.2-4.75,7.69-10.82,7.77s-11-3.27-11.1-7.41,4.79-7.69,10.89-7.8,11,3.26,11,7.44Z"/><path class="cls-2" d="M380.06,826c.73,4.1-3.49,8.31-9.51,9.44s-11.4-1.45-12.15-5.52,3.55-8.42,9.46-9.51,11.43,1.42,12.2,5.59Z"/></g></g></svg>