<svg xmlns="http://www.w3.org/2000/svg" viewBox="0 0 1024 1024"><defs><style>.cls-1{fill:#fff;}.cls-2,.cls-3{fill:#181616;}.cls-2{fill-rule:evenodd;}</style></defs><g id="Layer_2" data-name="Layer 2"><g id="Layer_1-2" data-name="Layer 1"><circle class="cls-1" cx="512" cy="512" r="512"/><path class="cls-2" d="M512,24.05c-269.48,0-488,218.47-488,488,0,215.61,139.83,398.53,333.73,463.06,24.38,4.52,33.34-10.59,33.34-23.48,0-11.63-.45-50.08-.66-90.85C254.64,890.3,226,803.2,226,803.2c-22.2-56.4-54.19-71.41-54.19-71.41-44.28-30.28,3.34-29.66,3.34-29.66,49,3.44,74.81,50.29,74.81,50.29,43.52,74.6,114.16,53,142,40.57,4.38-31.54,17-53.08,31-65.26-108.39-12.34-222.34-54.18-222.34-241.17,0-53.28,19.07-96.81,50.29-131-5.07-12.29-21.78-61.92,4.72-129.15,0,0,41-13.1,134.23,50C428.78,265.64,470.53,260.22,512,260c41.47.19,83.25,5.61,122.25,16.42,93.15-63.13,134.07-50,134.07-50,26.56,67.23,9.85,116.86,4.79,129.15,31.29,34.18,50.22,77.71,50.22,131,0,187.44-114.16,228.7-222.83,240.78,17.5,15.15,33.1,44.84,33.1,90.37,0,65.3-.56,117.85-.56,133.92,0,13,8.78,28.21,33.51,23.42,193.8-64.6,333.45-247.46,333.45-463C1000,242.52,781.51,24.05,512,24.05Z"/><path class="cls-3" d="M208.83,724.71c-1.07,2.43-4.89,3.15-8.36,1.49s-5.53-4.9-4.38-7.33,4.87-3.19,8.4-1.53,5.57,4.94,4.34,7.37Z"/><path class="cls-3" d="M228.6,746.76c-2.33,2.15-6.88,1.15-10-2.26s-3.78-8-1.43-10.14,6.82-1.15,10,2.26,3.82,8,1.39,10.14Z"/><path class="cls-3" d="M247.84,774.86c-3,2.08-7.88.13-10.91-4.21s-3-9.55.08-11.63,7.84-.2,10.9,4.1,3,9.62-.07,11.74Z"/><path class="cls-3" d="M274.2,802c-2.68,3-8.37,2.16-12.54-1.87s-5.45-9.51-2.78-12.46,8.45-2.13,12.64,1.87,5.53,9.54,2.68,12.46Z"/><path class="cls-3" d="M310.56,817.78c-1.18,3.82-6.66,5.56-12.19,3.93s-9.13-6.15-8-10,6.66-5.66,12.23-3.93,9.13,6.11,8,10Z"/><path class="cls-3" d="M350.5,820.7c.14,4-4.55,7.36-10.35,7.44s-10.56-3.13-10.62-7.09,4.58-7.36,10.41-7.47,10.56,3.13,10.56,7.12Z"/><path class="cls-3" d="M387.67,814.38c.69,3.92-3.34,8-9.1,9s-10.91-1.39-11.63-5.28,3.4-8.06,9.05-9.1,10.94,1.36,11.68,5.35Z"/></g></g></svg>